<?xml version="1.0" encoding="UTF-8"?>
<svg xmlns="http://www.w3.org/2000/svg" id="az" viewBox="0 0 70 50"><g id="bf"><path d="m33.938,25.288l-4.054,4.054c-.282.303-.274.775.019,1.068s.765.301,1.068.019l4.054-4.054,4.054,4.054c.3.3.787.301,1.087,0,.3-.3.301-.787,0-1.087l-4.054-4.054,4.103-4.103c.282-.303.273-.775-.019-1.068s-.765-.301-1.068-.019l-4.103,4.103-4.103-4.103c-.303-.282-.775-.273-1.068.019s-.301.765-.019,1.068l4.102,4.103Z" style="fill:#323232;"/><path d="m35,10.883c-7.851,0-14.216,6.365-14.216,14.216s6.365,14.216,14.216,14.216,14.216-6.365,14.216-14.216-6.365-14.216-14.216-14.216Zm0,26.587c-6.833,0-12.142-5.436-12.389-12.075v-.173c.034-6.389,5.705-12.388,12.537-12.414,6.565-.025,12.122,5.626,12.241,12.435.117,6.667-5.775,12.226-12.389,12.226Z" style="fill:#323232;"/></g></svg>
