<?xml version="1.0" encoding="UTF-8"?>
<svg xmlns="http://www.w3.org/2000/svg" id="Comm_neu" viewBox="0 0 70 50"><defs><style>.cls-1{fill:#333;}</style></defs><g id="Cup_of_coffee"><path class="cls-1" d="m47.55,29.39c0-3.05-2.28-5.56-5.22-5.97v-2.42c0-.39-.31-.7-.7-.7h-18.48c-.39,0-.7.31-.7.7v12.56c0,4.15,3.38,7.54,7.54,7.54h4.81c3.52,0,6.46-2.44,7.28-5.7,3.06-.3,5.47-2.86,5.47-6Zm-6.62,4.17c0,3.38-2.75,6.14-6.14,6.14h-4.81c-3.38,0-6.14-2.75-6.14-6.14v-11.86h17.08v11.86Zm1.36.41c0-.14.04-.27.04-.41v-8.74c2.17.4,3.82,2.29,3.82,4.57s-1.67,4.2-3.86,4.58Z"/><path class="cls-1" d="m35.88,17.74l-.04.06c-.22.32-.11.73.21.94.11.08.24.11.37.11.24,0,.48-.12.62-.33.81-1.2,1.5-2.24.05-3.97-.26-.31-.37-.59-.35-.85.04-.41.39-.78.68-1.02.3-.25.34-.69.09-.99-.25-.3-.69-.34-.99-.09-.71.59-1.12,1.27-1.18,1.97-.06.65.17,1.28.67,1.88.77.93.63,1.13-.14,2.29Z"/><path class="cls-1" d="m27.61,17.74l-.04.06c-.22.32-.11.73.21.94.11.07.24.11.37.11.24,0,.48-.12.62-.33.81-1.2,1.5-2.24.05-3.97-.26-.31-.37-.59-.35-.85.04-.41.39-.78.68-1.02.3-.25.34-.69.09-.99-.24-.3-.69-.34-.99-.09-.71.59-1.12,1.27-1.18,1.97-.06.65.16,1.28.67,1.88.77.92.63,1.13-.14,2.29Z"/><path class="cls-1" d="m31.8,15.2l-.04.06c-.22.32-.11.73.21.94.11.08.24.11.37.11.24,0,.48-.12.62-.33.81-1.2,1.5-2.23.05-3.97-.26-.31-.37-.59-.35-.85.04-.41.39-.78.68-1.02.3-.25.34-.69.09-.99-.25-.3-.69-.34-.99-.09-.71.59-1.12,1.27-1.18,1.97-.06.65.16,1.28.67,1.88.77.92.63,1.13-.14,2.29Z"/></g></svg>
