<?xml version="1.0" encoding="UTF-8"?>
<svg xmlns="http://www.w3.org/2000/svg" id="CM_SAMS" viewBox="0 0 70 50"><defs><style>.cls-1{fill:#333;}</style></defs><path id="Operating_start_counter" class="cls-1" d="m53.05,9.21h-2.8c-.38-1.45-1.69-2.53-3.25-2.53s-2.88,1.08-3.25,2.53h-5.1c-.38-1.45-1.69-2.53-3.25-2.53s-2.96,1.14-3.29,2.66c-.33-1.52-1.68-2.66-3.29-2.66s-3.08,1.25-3.32,2.88c-.24-1.62-1.63-2.88-3.32-2.88-1.57,0-2.88,1.08-3.25,2.53h-1.96c-.46,0-.84.38-.84.84v32.43c0,.46.38.84.84.84s.84-.38.84-.84v-8.91h1.12c.38,1.45,1.69,2.53,3.25,2.53,1.69,0,3.08-1.26,3.32-2.88.24,1.62,1.63,2.88,3.32,2.88,1.57,0,2.88-1.08,3.25-2.53h5.1s.01,0,.02,0c.38,1.45,1.69,2.53,3.25,2.53s2.94-1.13,3.28-2.63c.34,1.5,1.68,2.63,3.28,2.63s2.88-1.08,3.25-2.53h1.96v8.91c0,.46.38.84.84.84s.84-.38.84-.84V10.05c0-.46-.38-.84-.84-.84Zm-6.05-.85c.93,0,1.69.76,1.69,1.69s-.76,1.69-1.69,1.69-1.69-.76-1.69-1.69.76-1.69,1.69-1.69Zm-11.61,0c.93,0,1.69.76,1.69,1.69s-.76,1.69-1.69,1.69-1.69-.76-1.69-1.69.76-1.69,1.69-1.69Zm-6.58,0c.93,0,1.69.76,1.69,1.69s-.76,1.69-1.69,1.69-1.69-.76-1.69-1.69.76-1.69,1.69-1.69Zm-6.64,0c.93,0,1.69.76,1.69,1.69s-.76,1.69-1.69,1.69-1.69-.76-1.69-1.69.76-1.69,1.69-1.69Zm-3.25,2.53c.38,1.45,1.69,2.53,3.25,2.53,1.69,0,3.08-1.25,3.32-2.88.24,1.62,1.63,2.88,3.32,2.88s2.96-1.14,3.29-2.66c.33,1.52,1.68,2.66,3.29,2.66s2.88-1.08,3.25-2.53h5.1c.38,1.45,1.69,2.53,3.25,2.53s2.88-1.08,3.25-2.53h1.96v9.82h-1.96c-.38-1.45-1.69-2.53-3.25-2.53s-2.86,1.07-3.24,2.5c-.39-1.44-1.69-2.5-3.24-2.5-1.69,0-3.08,1.25-3.32,2.88-.24-1.62-1.63-2.88-3.32-2.88-1.57,0-2.88,1.08-3.25,2.53h-5.17c-.34-1.5-1.68-2.63-3.28-2.63s-2.94,1.13-3.28,2.63h-1.09v-9.82h1.12Zm29.78,10.66c0,.93-.76,1.69-1.69,1.69s-1.69-.76-1.69-1.69.76-1.69,1.69-1.69,1.69.76,1.69,1.69Zm-6.49,0c0,.93-.76,1.69-1.69,1.69s-1.69-.76-1.69-1.69.76-1.69,1.69-1.69,1.69.76,1.69,1.69Zm-6.64,0c0,.93-.76,1.69-1.69,1.69s-1.69-.76-1.69-1.69.76-1.69,1.69-1.69,1.69.76,1.69,1.69Zm-11.7-.1c0,.93-.76,1.69-1.69,1.69s-1.69-.76-1.69-1.69.76-1.69,1.69-1.69,1.69.76,1.69,1.69Zm-1.69,12.96c-.93,0-1.69-.76-1.69-1.69s.76-1.69,1.69-1.69,1.69.76,1.69,1.69-.76,1.69-1.69,1.69Zm6.64,0c-.93,0-1.69-.76-1.69-1.69s.76-1.69,1.69-1.69,1.69.76,1.69,1.69-.76,1.69-1.69,1.69Zm11.63,0c-.93,0-1.69-.76-1.69-1.69s.76-1.69,1.69-1.69,1.69.76,1.69,1.69-.76,1.69-1.69,1.69Zm6.56,0c-.93,0-1.69-.76-1.69-1.69s.76-1.69,1.69-1.69,1.69.76,1.69,1.69-.76,1.69-1.69,1.69Zm3.25-2.53c-.38-1.45-1.69-2.53-3.25-2.53s-2.94,1.13-3.28,2.63c-.34-1.5-1.68-2.63-3.28-2.63s-2.88,1.08-3.25,2.53c0,0-.01,0-.02,0h-5.1c-.38-1.45-1.69-2.53-3.25-2.53-1.69,0-3.08,1.26-3.32,2.88-.24-1.62-1.63-2.88-3.32-2.88-1.57,0-2.88,1.08-3.25,2.53h-1.12v-9.49h1.15c.41,1.4,1.69,2.43,3.22,2.43s2.81-1.03,3.22-2.43h5.23c.38,1.45,1.69,2.53,3.25,2.53,1.69,0,3.08-1.25,3.32-2.88.24,1.62,1.63,2.88,3.32,2.88,1.56,0,2.86-1.07,3.24-2.5.39,1.44,1.69,2.5,3.24,2.5s2.88-1.08,3.25-2.53h1.96v9.49h-1.96Z"/></svg>
